<svg width="27" height="33" viewBox="0 0 27 33" fill="none" xmlns="http://www.w3.org/2000/svg">
<g clip-path="url(#clip0_713_341)">
<path d="M26.1409 11.2497C25.9485 11.3982 22.552 13.3023 22.552 17.5362C22.552 22.4334 26.874 24.1659 27.0033 24.2088C26.9834 24.3144 26.3167 26.5815 24.7246 28.8915C23.3049 30.9243 21.8222 32.9538 19.5667 32.9538C17.3112 32.9538 16.7307 31.6503 14.1269 31.6503C11.5894 31.6503 10.6872 32.9967 8.62408 32.9967C6.56093 32.9967 5.12138 31.1157 3.46622 28.8057C1.54902 26.0931 0 21.879 0 17.8794C0 11.4642 4.19263 8.0619 8.31892 8.0619C10.5114 8.0619 12.3391 9.4941 13.7156 9.4941C15.0258 9.4941 17.069 7.9761 19.5634 7.9761C20.5087 7.9761 23.9053 8.0619 26.1409 11.2497ZM18.3792 5.2602C19.4108 4.0425 20.1405 2.3529 20.1405 0.6633C20.1405 0.429 20.1206 0.1914 20.0775 0C18.3991 0.0627 16.4023 1.1121 15.1983 2.5014C14.2529 3.5706 13.3706 5.2602 13.3706 6.9729C13.3706 7.2303 13.4138 7.4877 13.4337 7.5702C13.5398 7.59 13.7123 7.6131 13.8848 7.6131C15.3907 7.6131 17.2846 6.6099 18.3792 5.2602Z" fill="black"/>
</g>
<defs>
<clipPath id="clip0_713_341">
<rect width="27" height="33" fill="white"/>
</clipPath>
</defs>
</svg>
