<svg width="90" height="90" viewBox="0 0 90 90" fill="none" xmlns="http://www.w3.org/2000/svg">
<path d="M60 11.25V26.25M30 11.25V26.25M15 41.25H75M15 26.25C15 24.2609 15.7902 22.3532 17.1967 20.9467C18.6032 19.5402 20.5109 18.75 22.5 18.75H67.5C69.4892 18.75 71.3968 19.5402 72.8033 20.9467C74.2099 22.3532 75 24.2609 75 26.25V71.25C75 73.2391 74.2099 75.1468 72.8033 76.5533C71.3968 77.9598 69.4892 78.75 67.5 78.75H22.5C20.5109 78.75 18.6032 77.9598 17.1967 76.5533C15.7902 75.1468 15 73.2391 15 71.25V26.25Z" stroke="#3A0713" stroke-width="5.625" stroke-linecap="round" stroke-linejoin="round"/>
<path d="M30 56.25H37.5V63.75H30V56.25Z" stroke="#3A0713" stroke-width="5.625" stroke-linecap="round" stroke-linejoin="round"/>
</svg>
