<svg width="90" height="90" viewBox="0 0 90 90" fill="none" xmlns="http://www.w3.org/2000/svg">
<path d="M78.75 44.9999C78.75 38.3216 76.7687 31.7934 73.0569 26.2417C69.345 20.6899 64.0696 16.3641 57.8982 13.8119C51.7268 11.2596 44.937 10.5957 38.3881 11.904C31.8392 13.2124 25.8257 16.4342 21.1086 21.1617C16.3916 25.8893 13.1832 31.9099 11.8894 38.4617C10.5956 45.0135 11.2747 51.8019 13.8407 57.9676C16.4066 64.1332 20.7441 69.3991 26.3041 73.0985C31.8641 76.798 38.3967 78.7648 45.075 78.7499" stroke="#3A0713" stroke-width="5.625" stroke-linecap="round" stroke-linejoin="round"/>
<path d="M45 26.25V45L48.75 48.75M82.5 60C82.5 75 73.125 82.5 69.375 82.5C65.625 82.5 56.25 75 56.25 60C60 60 65.625 58.125 69.375 54.375C73.125 58.125 78.75 60 82.5 60Z" stroke="#3A0713" stroke-width="5.625" stroke-linecap="round" stroke-linejoin="round"/>
</svg>
