<svg width="90" height="90" viewBox="0 0 90 90" fill="none" xmlns="http://www.w3.org/2000/svg">
<path d="M73.1249 47.1448L44.9999 74.9998L16.8749 47.1448C15.0198 45.3396 13.5586 43.1699 12.5832 40.7722C11.6079 38.3745 11.1395 35.8009 11.2077 33.2133C11.2758 30.6257 11.879 28.0803 12.9792 25.7373C14.0795 23.3943 15.6529 21.3045 17.6005 19.5995C19.548 17.8945 21.8276 16.6111 24.2954 15.8304C26.7633 15.0496 29.3662 14.7882 31.94 15.0628C34.5139 15.3374 37.003 16.1419 39.2507 17.4257C41.4983 18.7095 43.4558 20.4448 44.9999 22.5223C46.5507 20.4599 48.5104 18.7398 50.7565 17.4696C53.0026 16.1994 55.4868 15.4065 58.0534 15.1405C60.62 14.8745 63.214 15.1412 65.6728 15.9238C68.1317 16.7064 70.4025 17.9881 72.3432 19.6887C74.2839 21.3893 75.8528 23.4721 76.9515 25.8069C78.0502 28.1417 78.6552 30.6781 78.7286 33.2575C78.8019 35.8368 78.3421 38.4035 77.3779 40.797C76.4137 43.1905 74.9658 45.3591 73.1249 47.1673" stroke="#3A0713" stroke-width="5.625" stroke-linecap="round" stroke-linejoin="round"/>
</svg>
