<?xml version="1.0" encoding="UTF-8"?>
<svg id="Calque_2" data-name="Calque 2" xmlns="http://www.w3.org/2000/svg" viewBox="0 0 306.95 129.36">
  <g id="Calque_1-2" data-name="Calque 1">
    <g>
      <g>
        <path d="M44.1,23.59l-.04,5.97c1.22-.43,2.21-.85,3.31-1.35,1.37-.62,3.03.57,6.43-.51,1.65-.52,2.66-1.85,2.62-3.55,0-.25.31-.54.53-.54.4,0,.5.29.53.65.14,1.78-.61,3.36-2.19,4.32-1.08.66-2.3,1.08-3.61,1.12l-3.27.1-5.15,2.41c-.23.11-.76.01-.96-.1s-.46-.49-.47-.8l-.14-4.57c-.04-1.21-.13-2.38-.06-3.6.06-1.07.8-1.96,1.82-2.41,2.63-1.14,5.34-1.87,8.19-2.4l7.92-1.47c2.4-.44,4.66-1.01,6.94-1.84l6.28-2.28c7.65-2.78,15.35-5.25,23.27-7.29,5.02-1.29,10.02-2.28,15.16-3,7.03-.99,14-1.65,21.07-2.01l2.55-.13,2.68-.11,2.7-.09,8.02-.12,6.84.13,2.77.12c2.75.12,5.42.33,8.13.93,5.5,1.23,10.73,3.03,15.92,5.18s9.66,4.43,14.27,7.14c4.07,2.39,7.88,5.02,11.52,7.93.21.17.2.62.07.77-.15.17-.54.2-.78.05-4.19-2.77-8.5-5.22-12.98-7.57-1.93-1.01-3.77-1.88-5.76-2.8-7.61-3.51-15.42-6.38-23.62-8.38-2.41-.59-4.79-.81-7.23-1.01l-5.89-.5-1.4-.09-2.22-.11-2.57-.11h-8.85s-2.82.12-2.82.12c-14.23.59-33.36,4.45-46.76,9.22l-16.92,6.02c-2.97,1.06-5.8,2.03-8.91,2.54l-7.76,1.26c-2.98.48-5.81,1.12-8.63,2.13-.22.08-.6.34-.6.63Z"/>
        <path d="M261.93,31.62c1.04,2.03,2.14,3.78,1.37,6.11-.04.12-.22.28-.32.31s-.34-.14-.41-.25c.25-1.15.04-2.47-.56-3.54-.54-.97-1.03-1.89-1.68-2.8-1.1-1.55-6.29-2.82-8.28-3.22-7.2-1.45-14.42-2.29-21.75-2.67l-2.45-.13-2.33-.1-3.51-.12-14.19.02-5.62.07-3.4.1h-27.35s-3.06-.1-3.06-.1l-6.78-.07-5.54-.08-5.05-.1-1.97-.08-3.96-.09-3.73-.11-3.08-.09-2.29-.08-3.38-.12-2.56-.1-3.25-.13-2.58-.11-2.44-.11-2.68-.12-1.87-.09-9.22-.47.04-2.29,2.17-.09c1.38-.06,2.71,0,4.1.02l4.89.05,4.55.13,3.84.11,3.61.11,3.96.12,3.26.1,3.85.12,3.61.11,3.38.1,4.32.12,3.84.11,4.43.12,4.31.11,3.84.1,5.24.12,3.03.08,3.03.08,3.97.06,5.24.07,2.33.08,8.51.11,9.19.07,6.54.11,2.35.08c9.72.33,32.32,2.05,40.57,6.44.81.43,1.46,1.03,1.86,1.8Z"/>
        <path d="M243.8,37.3c-9.34-6.61-21.13-6.64-30.51-.04l-3.23-.02c9.43-10.6,27.55-10.55,36.99,0l-3.25.05Z"/>
        <path d="M97.31,37.26c-9.28-6.58-21.12-6.58-30.42-.01-1.09.04-2.04.06-3.24-.02,9.47-10.54,27.42-10.58,36.92,0-1.22.09-2.16.07-3.26.04Z"/>
      </g>
      <g>
        <path d="M68.15,55.13c8.53,0,12.66-2.33,16.07-8.47.9-1.73,1.98-1.21,1.35.6-5.3,11.23-9.07,14.43-15.89,14.43-7.27,0-17.6-6.74-30.08-6.74-16.52,0-31.06,8.29-31.06,22.72,0,4.75,1.53,8.47,5.39,10.45.63.26.99.43.99.78,0,.52-.72.6-1.44.6-7.27-.35-13.47-5.62-13.47-13.13,0-18.57,26.04-24.54,41.93-24.54,10.59,0,18.67,3.28,26.22,3.28ZM52.97,60.83c-6.91,5.36-10.77,12.01-16.7,26.26l-4.04,9.94c-.9,2.16-1.44,3.89-1.44,5.27,0,2.51,1.89,3.63,7.18,3.63,1.26,0,2.33.09,2.33.78s-1.08.78-2.33.78c-5.12,0-10.33-.17-15.53-.17-4.76,0-9.52.17-14.19.17-1.26,0-2.06-.09-2.06-.78,0-.52.99-.69,2.06-.69,6.38,0,9.43-2.51,12.3-9.33l5.3-12.44c6.82-15.81,15.8-22.2,26.4-24.62,1.53-.43,1.89.35.72,1.21Z"/>
        <path d="M74.69,73.53c0-1.47-.09-2.33-.45-2.94-.81-1.47-3.5-1.9-4.94-1.9-.81,0-1.44-.17-1.44-.6s.54-.6,1.35-.6c2.69,0,5.57.09,10.59.09s7.9-.09,10.59-.09c.81,0,1.35.17,1.35.6s-.63.6-1.44.6c-1.44,0-4.13.43-4.94,1.9-.36.6-.54,1.47-.54,2.94v7.78c0,.52.18.86.72.86h27.11c.45,0,.72-.17.72-.52v-8.12c0-1.47-.18-2.33-.54-2.94-.81-1.47-3.5-1.9-4.94-1.9-.9,0-1.44-.09-1.44-.6,0-.43.54-.6,1.44-.6,2.6,0,5.57.09,10.5.09s7.9-.09,10.5-.09c.9,0,1.44.17,1.44.6,0,.52-.54.6-1.44.6-1.44,0-4.13.43-4.94,1.9-.36.6-.45,1.47-.45,2.94v22.72c0,1.47.09,2.33.45,2.94.9,1.47,3.5,1.9,4.94,1.9.9,0,1.44.17,1.44.6,0,.52-.54.6-1.44.6-2.6,0-5.48-.09-10.42-.09s-7.9.09-10.59.09c-.9,0-1.44-.09-1.44-.6,0-.43.54-.6,1.44-.6,1.44,0,4.04-.43,4.94-1.9.36-.6.54-1.47.54-2.94v-9.68c0-.52-.27-.86-.72-.86h-26.84c-.72,0-.99.17-.99.86v9.68c0,1.47.18,2.33.54,2.94.81,1.47,3.5,1.9,4.94,1.9.81,0,1.44.17,1.44.6,0,.52-.54.6-1.35.6-2.69,0-5.66-.09-10.68-.09s-7.81.09-10.5.09c-.81,0-1.35-.09-1.35-.6,0-.43.54-.6,1.44-.6,1.44,0,4.13-.43,4.94-1.9.36-.6.45-1.47.45-2.94v-22.72Z"/>
        <path d="M145.17,73.53c0-1.47-.18-2.33-.54-2.94-.81-1.47-3.41-1.9-4.85-1.9-.9,0-1.44-.26-1.44-.6s.54-.6,1.26-.6c2.69,0,5.57.09,10.59.09s7.9-.09,10.59-.09c.81,0,1.35.26,1.35.6s-.63.6-1.44.6c-1.44,0-4.13.43-4.94,1.9-.36.6-.54,1.47-.54,2.94v22.72c0,1.47.27,2.33.54,2.94.81,1.47,3.5,1.9,4.94,1.9.81,0,1.44.26,1.44.6s-.54.6-1.35.6c-2.69,0-5.57-.09-10.59-.09s-7.99.09-10.59.09c-.72,0-1.26-.26-1.26-.6s.54-.6,1.44-.6c1.44,0,4.04-.43,4.85-1.9.27-.6.54-1.47.54-2.94v-22.72Z"/>
        <path d="M205.59,92.19h-23.34l-1.98,2.85c-.54.78-1.89,2.76-1.89,4.15,0,1.04.72,1.9,3.05,1.9.9,0,1.35.17,1.35.6s-.36.6-1.26.6c-2.78,0-5.39-.09-7.99-.09s-5.57.09-8.26.09c-.9,0-1.44-.17-1.44-.6s.63-.6,1.44-.6c3.95,0,5.93-1.56,10.06-7.34l16.07-22.72c-.9-1.47-3.41-2.33-4.94-2.33-.9,0-1.44-.17-1.44-.6s.54-.6,1.35-.6h8.44c4.04,0,5.84,1.04,7.54,3.54l15.44,22.46c2.06,2.94,5.66,7.6,8.89,7.6.9,0,1.35.26,1.35.69s-.45.52-1.35.52c-3.32,0-6.55-.09-9.88-.09s-6.73.09-10.15.09c-.9,0-1.26-.17-1.26-.6s.36-.6,1.26-.6c1.35,0,3.05-.26,3.05-1.81,0-.78-.36-1.73-2.15-4.23l-1.98-2.85ZM184.58,88.74h18.67l-9.25-13.65-9.43,13.65Z"/>
        <path d="M281,77.16l-15.17,24.19c-.72,1.21-1.17,1.73-1.44,1.73-.36,0-.72-.6-1.44-1.64l-15.08-23.76-6.02,17.28c-.36,1.04-.54,1.81-.54,2.59,0,2.51,1.89,3.54,5.39,3.54,1.08,0,1.71.17,1.71.6s-.54.6-1.62.6c-3.32,0-5.75-.09-9.07-.09-3.14,0-6.02.09-9.07.09-.99,0-1.44-.17-1.44-.6,0-.35.45-.6,1.44-.6,4.13,0,6.37-1.9,8.17-7.52l6.37-19.09c.36-1.04.54-1.99.54-2.76,0-2.16-1.53-3.02-5.03-3.02-1.35,0-1.62-.17-1.62-.6,0-.26.36-.6,1.44-.6h10.23c3.59,0,4.4.43,6.11,3.11l12.12,19.78,12.93-20.65c1.08-1.73,2.51-2.25,4.76-2.25h10.59c.9,0,1.53.17,1.53.6s-.63.69-1.62.69c-3.59,0-5.12.52-5.12,2.51,0,.78.27,1.81.72,3.11l6.73,19.27c1.71,4.92,3.23,7.43,7.81,7.43,1.17,0,1.62.17,1.62.6s-.45.6-1.62.6c-4.13,0-7-.09-10.77-.09s-7.72.09-12.03.09c-1.35,0-1.53-.17-1.53-.52s.27-.6,1.62-.6c4.58,0,6.11-1.81,4.76-5.62l-6.38-18.4Z"/>
      </g>
      <g>
        <path d="M47.86,121.31c0,.1,0,.19-.1.22s-.15-.07-.18-.17c-.48-2.17-2.83-2.82-5.26-2.82-2.23,0-4.33.51-4.33,1.92,0,3.19,10.55.39,10.55,5.43,0,2.29-2.28,3.41-6.22,3.41-3.29,0-4.3-.58-4.93-.88-.46-.22-.28.24-.48.29-.18.05-.28-.19-.35-.71l-.4-2.58c-.03-.17-.03-.29.08-.32.13-.02.15.07.2.24.86,2.77,3.29,3.24,5.89,3.24,2.91,0,5.09-.63,5.09-2.41,0-3.99-10.55-.83-10.55-5.38,0-2.34,2.88-2.94,5.46-2.94,2.33,0,3.82.56,4.3.73.48.17.28-.24.53-.24.1,0,.15.07.28.73l.43,2.24Z"/>
        <path d="M57.57,129.05c-1.14,0-1.8-.05-2.76-.05-.91,0-1.67.05-2.63.05-.13,0-.2-.07-.2-.12s.08-.15.2-.15c1.62,0,1.92-1.22,1.92-2.36v-5.74c0-1.12-.3-2.34-1.92-2.34-.18,0-.25-.07-.25-.12s.08-.15.25-.15c.78,0,1.67.05,2.63.05s1.52-.05,2.25-.05h5.11c1.54,0,1.24-.22,1.49-.22.13,0,.18.07.15.22l-.3,2.58c-.03.19-.28.17-.25,0,.15-1.75-1.37-2-3.49-2h-2.71c-1.37,0-1.52.22-1.52,1.63v2.7c0,.1.03.12.1.12h3.82c1.09,0,1.75-.54,1.75-1.51,0-.24.28-.24.28,0,0,.56-.05,1.34-.05,1.85s.05,1.27.05,1.78c0,.24-.28.22-.28,0,0-.97-.66-1.53-1.75-1.53h-3.82c-.08,0-.1.02-.1.1v2.53c0,1.87.28,2.14,3.59,2.14,2.45,0,4.38-.8,5.16-2.87.1-.27.35-.19.25.07l-.89,2.6c-.18.56-.38.78-1.19.78h-4.91Z"/>
        <path d="M69.74,120.65c0-1.1-.28-2.31-1.92-2.31-.25,0-.38-.02-.38-.15,0-.1.1-.12.25-.12.89,0,1.59.05,2.66.05,1.27,0,2.3-.05,3.04-.05h1.62c2.76,0,5.57.63,5.57,3.12,0,1.85-1.72,2.85-3.49,3.07.35.07,1.04,1.07,1.42,1.58,2,2.65,2.83,2.97,3.72,2.99.43,0,.46,0,.89-.05.23-.02.28.19.05.24-.4.05-.76.12-1.44.12-2.23,0-2.78-.22-4.78-2.99-1.26-1.75-1.37-1.8-2.45-1.8h-3.21c-.05,0-.08.02-.08.1v1.85c0,.88.05,1.31.23,1.63.33.63,1.27.85,1.67.85.25,0,.48,0,.48.15,0,.12-.13.12-.4.12-.99,0-2-.05-2.68-.05-.73,0-1.64.05-2.73.05-.25,0-.41,0-.41-.12s.2-.15.46-.15c.63-.02,1.37-.29,1.7-.85.18-.32.25-.75.25-1.63v-5.65ZM75,123.74c2.28,0,3.82-.68,3.82-2.56s-1.54-2.58-3.82-2.58h-1.62c-2.1,0-2.2.15-2.2,1.97v3.07c0,.07.03.1.08.1h3.74Z"/>
        <path d="M86.18,120.65c-.71-1.12-1.42-2.31-2.99-2.31-.25,0-.48,0-.48-.12s.15-.15.38-.15c.91,0,1.57.05,2.48.05s1.8-.05,2.71-.05c.25,0,.38,0,.38.12,0,.15-.23.15-.48.15-.86,0-1.21.27-1.21.71,0,.24.13.54.33.88l4.96,7.76,4.81-7.74c.25-.39.38-.71.38-.95,0-.44-.41-.66-1.21-.66-.23,0-.46,0-.46-.15,0-.1.13-.12.46-.12.63,0,1.19.05,1.95.05s1.21-.05,1.97-.05c.23,0,.48,0,.48.12,0,.15-.15.15-.48.15-1.09,0-1.8.78-2.43,1.8l-5.19,8.3c-.51.83-.58.85-.71.85-.1,0-.15-.02-.66-.8l-4.98-7.84Z"/>
        <path d="M104.74,120.82c0-.88-.08-1.34-.25-1.63-.33-.56-1.09-.83-1.64-.85-.25,0-.51,0-.51-.15,0-.12.15-.12.4-.12,1.01,0,1.72.05,2.68.05.83,0,1.8-.05,2.73-.05.28,0,.4,0,.4.12,0,.15-.23.15-.48.15-.56.02-1.34.29-1.67.85-.15.29-.23.75-.23,1.63v5.48c0,.88.08,1.31.23,1.63.33.56,1.11.83,1.67.85.25,0,.48,0,.48.15,0,.12-.13.12-.4.12-.99,0-1.85-.05-2.78-.05-.83,0-1.64.05-2.63.05-.25,0-.4,0-.4-.12,0-.15.25-.15.51-.15.56-.02,1.32-.29,1.64-.85.18-.32.25-.75.25-1.63v-5.48Z"/>
        <path d="M125.48,127.8c-.2.49-.35.73-.89.92-.66.22-2.58.56-5.06.56-3.62,0-8.15-1.48-8.15-5.74s4.55-5.69,8.12-5.69c3.36,0,4.98.78,5.41.88.56.17.68-.1.86-.1.15,0,.18.1.18.41v3.02c0,.19-.25.19-.3.02-.81-2.63-2.86-3.7-6.15-3.7-3.11,0-6.22,1.48-6.22,5.14s3.26,5.23,6.22,5.23c3.44,0,5.31-1.53,6.58-3.36.13-.19.35-.12.28.12l-.89,2.29Z"/>
        <path d="M135.27,129.05c-1.14,0-1.8-.05-2.76-.05-.91,0-1.67.05-2.63.05-.13,0-.2-.07-.2-.12s.08-.15.2-.15c1.62,0,1.92-1.22,1.92-2.36v-5.74c0-1.12-.3-2.34-1.92-2.34-.18,0-.25-.07-.25-.12s.08-.15.25-.15c.78,0,1.67.05,2.63.05s1.52-.05,2.25-.05h5.11c1.54,0,1.24-.22,1.49-.22.13,0,.18.07.15.22l-.3,2.58c-.03.19-.28.17-.25,0,.15-1.75-1.37-2-3.49-2h-2.71c-1.37,0-1.52.22-1.52,1.63v2.7c0,.1.03.12.1.12h3.82c1.09,0,1.75-.54,1.75-1.51,0-.24.28-.24.28,0,0,.56-.05,1.34-.05,1.85s.05,1.27.05,1.78c0,.24-.28.22-.28,0,0-.97-.66-1.53-1.75-1.53h-3.82c-.08,0-.1.02-.1.1v2.53c0,1.87.28,2.14,3.59,2.14,2.45,0,4.38-.8,5.16-2.87.1-.27.35-.19.25.07l-.89,2.6c-.18.56-.38.78-1.19.78h-4.91Z"/>
        <path d="M156.82,121.31c0,.1,0,.19-.1.22s-.15-.07-.18-.17c-.48-2.17-2.83-2.82-5.26-2.82-2.23,0-4.33.51-4.33,1.92,0,3.19,10.55.39,10.55,5.43,0,2.29-2.28,3.41-6.22,3.41-3.29,0-4.3-.58-4.93-.88-.46-.22-.28.24-.48.29-.18.05-.28-.19-.35-.71l-.4-2.58c-.03-.17-.03-.29.08-.32.13-.02.15.07.2.24.86,2.77,3.29,3.24,5.89,3.24,2.91,0,5.08-.63,5.08-2.41,0-3.99-10.55-.83-10.55-5.38,0-2.34,2.88-2.94,5.46-2.94,2.33,0,3.82.56,4.3.73.48.17.28-.24.53-.24.1,0,.15.07.28.73l.43,2.24Z"/>
        <path d="M170.15,120.67c0-1.12-.3-2.34-1.92-2.34-.18,0-.25-.07-.25-.12s.08-.15.25-.15c.78,0,1.67.05,2.63.05s1.77-.05,2.25-.05h5.11c1.54,0,1.42-.22,1.54-.22s.13.07.1.22l-.3,2.58c-.03.19-.25.17-.25,0-.1-1.75-1.62-1.97-3.49-1.97h-3.47c-.61,0-.76.22-.76.73v3.87c0,.1.03.12.1.12h3.31c.83,0,1.75-.51,1.75-1.51,0-.24.28-.24.28,0,0,.56-.05,1.34-.05,1.85s.05,1.27.05,1.78c0,.24-.28.22-.28,0,0-.97-.91-1.48-1.75-1.48h-3.31c-.08,0-.1.02-.1.1v2.17c0,.88.05,1.31.23,1.63.3.58,1.11.83,1.67.85.25,0,.48,0,.48.15,0,.12-.13.12-.4.12-.89,0-1.67-.05-2.53-.05-.91,0-1.8.05-2.88.05-.25,0-.41,0-.41-.12,0-.15.25-.15.51-.15.56-.02,1.32-.29,1.64-.85.18-.32.25-.75.25-1.63v-5.62Z"/>
        <path d="M184.66,120.65c0-1.1-.28-2.31-1.92-2.31-.25,0-.38-.02-.38-.15,0-.1.1-.12.25-.12.89,0,1.59.05,2.66.05,1.27,0,2.3-.05,3.04-.05h1.62c2.76,0,5.57.63,5.57,3.12,0,1.85-1.72,2.85-3.49,3.07.35.07,1.04,1.07,1.42,1.58,2,2.65,2.83,2.97,3.72,2.99.43,0,.46,0,.89-.05.23-.02.28.19.05.24-.4.05-.76.12-1.44.12-2.23,0-2.78-.22-4.78-2.99-1.26-1.75-1.37-1.8-2.45-1.8h-3.21c-.05,0-.08.02-.08.1v1.85c0,.88.05,1.31.23,1.63.33.63,1.27.85,1.67.85.25,0,.48,0,.48.15,0,.12-.13.12-.4.12-.99,0-2-.05-2.68-.05-.73,0-1.64.05-2.73.05-.25,0-.41,0-.41-.12s.2-.15.46-.15c.63-.02,1.37-.29,1.7-.85.18-.32.25-.75.25-1.63v-5.65ZM189.92,123.74c2.28,0,3.82-.68,3.82-2.56s-1.54-2.58-3.82-2.58h-1.62c-2.1,0-2.2.15-2.2,1.97v3.07c0,.07.03.1.08.1h3.74Z"/>
        <path d="M210.61,125.47h-7.46l-.94,1.48c-.28.41-.48.85-.48,1.17,0,.39.3.66,1.11.66.25,0,.48,0,.48.15,0,.1-.13.12-.38.12-.78,0-1.52-.05-2.3-.05s-1.26.05-2,.05c-.25,0-.4-.02-.4-.15s.25-.15.51-.15c1.39,0,2.25-1.1,2.83-2.02l4.96-7.67c-.46-.56-1.19-.73-1.9-.73-.3,0-.35-.27,0-.27h2.07c.83,0,1.11.17,1.37.58l5.41,8.59c.63,1,1.16,1.53,2.07,1.53.33,0,.48.02.48.15,0,.1-.13.12-.46.12-.86,0-1.01-.05-1.92-.05s-1.85.05-2.76.05c-.33,0-.43-.02-.43-.12,0-.12.13-.15.43-.15.73,0,1.19-.17,1.19-.61,0-.22-.1-.49-.33-.85l-1.16-1.85ZM203.5,124.93h6.78l-3.36-5.35-3.42,5.35Z"/>
        <path d="M220.96,119.29v7.5c0,1.12.15,2,1.87,2,.15,0,.33,0,.33.15,0,.1-.1.12-.23.12-.71,0-1.75-.05-2.43-.05-.81,0-1.62.05-2.43.05-.15,0-.25-.02-.25-.12,0-.15.2-.15.35-.15,1.59,0,1.92-.71,1.92-2v-6.99c0-.63-.4-1.46-1.92-1.46-.13,0-.35,0-.35-.15,0-.1.1-.12.25-.12h2.61c.96,0,1.01,0,1.44.37l9.69,8.69v-6.77c0-1.12-.13-2.02-1.85-2.02-.05,0-.3,0-.3-.15,0-.1.1-.12.25-.12.68,0,1.67.05,2.35.05.81,0,1.57-.05,2.38-.05.15,0,.25.02.25.12,0,.15-.3.15-.35.15-1.54,0-1.87.78-1.87,2.02v8.25c0,.58-.03.75-.15.75s-.28-.05-.76-.49l-10.8-9.59Z"/>
        <path d="M251.71,127.8c-.2.49-.35.73-.89.92-.66.22-2.58.56-5.06.56-3.62,0-8.15-1.48-8.15-5.74s4.55-5.69,8.12-5.69c3.37,0,4.98.78,5.41.88.56.17.68-.1.86-.1.15,0,.18.1.18.41v3.02c0,.19-.25.19-.3.02-.81-2.63-2.86-3.7-6.15-3.7-3.11,0-6.22,1.48-6.22,5.14s3.26,5.23,6.22,5.23c3.44,0,5.31-1.53,6.58-3.36.13-.19.35-.12.28.12l-.89,2.29Z"/>
        <path d="M261.5,129.05c-1.14,0-1.8-.05-2.76-.05-.91,0-1.67.05-2.63.05-.13,0-.2-.07-.2-.12s.08-.15.2-.15c1.62,0,1.92-1.22,1.92-2.36v-5.74c0-1.12-.3-2.34-1.92-2.34-.18,0-.25-.07-.25-.12s.08-.15.25-.15c.78,0,1.67.05,2.63.05s1.52-.05,2.25-.05h5.11c1.54,0,1.24-.22,1.49-.22.13,0,.18.07.15.22l-.3,2.58c-.03.19-.28.17-.25,0,.15-1.75-1.37-2-3.49-2h-2.71c-1.37,0-1.52.22-1.52,1.63v2.7c0,.1.03.12.1.12h3.82c1.09,0,1.75-.54,1.75-1.51,0-.24.28-.24.28,0,0,.56-.05,1.34-.05,1.85s.05,1.27.05,1.78c0,.24-.28.22-.28,0,0-.97-.66-1.53-1.75-1.53h-3.82c-.08,0-.1.02-.1.1v2.53c0,1.87.28,2.14,3.59,2.14,2.45,0,4.38-.8,5.16-2.87.1-.27.35-.19.25.07l-.89,2.6c-.18.56-.38.78-1.19.78h-4.91Z"/>
      </g>
    </g>
  </g>
</svg>